<svg width="24" height="24" viewBox="0 0 24 24" fill="none" xmlns="http://www.w3.org/2000/svg">
<path d="M19.75 15.05C19.38 14.35 18.92 13.67 18.57 12.99C18.2283 12.3798 18.0332 11.6986 18 11V9.21C18.0018 7.69616 17.4628 6.23147 16.48 5.08C15.5911 4.02513 14.359 3.31704 13 3.08V3C13 2.73478 12.8947 2.48043 12.7071 2.29289C12.5196 2.10536 12.2652 2 12 2C11.7348 2 11.4804 2.10536 11.2929 2.29289C11.1054 2.48043 11 2.73478 11 3V3.09C9.60296 3.32615 8.33454 4.04908 7.41941 5.13077C6.50427 6.21247 6.00146 7.58312 6.00002 9V11C5.96842 11.702 5.77323 12.3868 5.43002 13C5.08002 13.68 4.62002 14.36 4.25002 15.06C4.04678 15.4325 3.96727 15.86 4.023 16.2806C4.07873 16.7013 4.2668 17.0933 4.56002 17.4C4.7476 17.5914 4.97174 17.7431 5.21911 17.8462C5.46648 17.9493 5.73204 18.0016 6.00002 18H9.00002C9.00002 18.7956 9.31609 19.5587 9.8787 20.1213C10.4413 20.6839 11.2044 21 12 21C12.7957 21 13.5587 20.6839 14.1213 20.1213C14.6839 19.5587 15 18.7956 15 18H18C18.2687 18.0003 18.5347 17.9464 18.7821 17.8416C19.0295 17.7368 19.2533 17.5832 19.44 17.39C19.7332 17.0833 19.9213 16.6913 19.977 16.2706C20.0328 15.85 19.9533 15.4225 19.75 15.05ZM12 19C11.7348 19 11.4804 18.8946 11.2929 18.7071C11.1054 18.5196 11 18.2652 11 18H13C13 18.2652 12.8947 18.5196 12.7071 18.7071C12.5196 18.8946 12.2652 19 12 19ZM6.00002 16C6.30002 15.44 6.78002 14.73 7.20002 13.9C7.69585 13.0117 7.97027 12.0169 8.00002 11V9C8.00002 7.93913 8.42145 6.92172 9.17159 6.17157C9.92174 5.42143 10.9392 5 12 5H12.4C12.9029 5.04772 13.3913 5.19418 13.8375 5.43098C14.2836 5.66779 14.6787 5.99028 15 6.38C15.6563 7.17612 16.0104 8.17833 16 9.21V11C16.0283 12.0127 16.2992 13.0038 16.79 13.89C17.21 14.72 17.69 15.43 17.99 15.99H6.00002V16Z" fill="#222221"/>
</svg>
