<svg width="24" height="24" viewBox="0 0 24 24" fill="none" xmlns="http://www.w3.org/2000/svg">
<path d="M21.33 12.92C21.3274 12.3669 21.2075 11.8206 20.9783 11.3173C20.749 10.8139 20.4156 10.365 20 10C19.9993 8.81709 19.7363 7.64905 19.23 6.58C18.5816 5.21113 17.5579 4.05444 16.278 3.24446C14.9982 2.43448 13.5146 2.00449 12 2.00449C10.4853 2.00449 9.00176 2.43448 7.72186 3.24446C6.44197 4.05444 5.41832 5.21113 4.76995 6.58C4.26517 7.64959 4.00227 8.81728 3.99995 10L3.77995 10.19C3.05896 10.9758 2.65894 12.0035 2.65894 13.07C2.65894 14.1365 3.05896 15.1642 3.77995 15.95C4.136 16.3351 4.56735 16.643 5.04728 16.8546C5.5272 17.0662 6.04547 17.1769 6.56996 17.18H6.99996C7.13156 17.1808 7.26202 17.1555 7.38386 17.1058C7.5057 17.056 7.61652 16.9827 7.70996 16.89C7.88761 16.7112 7.99118 16.4719 7.99996 16.22V10C7.99996 9.73478 7.8946 9.48043 7.70706 9.29289C7.51953 9.10536 7.26517 9 6.99996 9H6.57995C6.41244 9.00674 6.24548 9.02344 6.07995 9.05C6.16735 8.48865 6.33577 7.94296 6.57995 7.43C7.0668 6.40471 7.83448 5.53855 8.79385 4.93206C9.75323 4.32557 10.865 4.00364 12 4.00364C13.135 4.00364 14.2467 4.32557 15.2061 4.93206C16.1654 5.53855 16.9331 6.40471 17.42 7.43C17.6641 7.94296 17.8326 8.48865 17.92 9.05C17.7544 9.02344 17.5875 9.00674 17.42 9H17C16.7347 9 16.4804 9.10536 16.2928 9.29289C16.1053 9.48043 16 9.73478 16 10V15.83C15.9992 15.9616 16.0244 16.0921 16.0742 16.2139C16.1239 16.3357 16.1973 16.4466 16.29 16.54C16.3834 16.6327 16.4942 16.706 16.616 16.7558C16.7379 16.8055 16.8683 16.8308 17 16.83H17.42C17.6146 16.8254 17.8085 16.8053 18 16.77V19C18 19.2652 17.8946 19.5196 17.7071 19.7071C17.5195 19.8946 17.2652 20 17 20H16C16.032 19.8352 16.0487 19.6678 16.05 19.5C16.05 19.1674 15.9837 18.8382 15.855 18.5316C15.7262 18.225 15.5376 17.9471 15.3001 17.7143C15.0627 17.4815 14.7811 17.2984 14.472 17.1758C14.1629 17.0531 13.8324 16.9934 13.5 17H11.5C10.8369 17 10.201 17.2634 9.73219 17.7322C9.26335 18.2011 8.99996 18.837 8.99996 19.5C8.99996 20.163 9.26335 20.7989 9.73219 21.2678C10.201 21.7366 10.8369 22 11.5 22H17C17.7956 22 18.5587 21.6839 19.1213 21.1213C19.6839 20.5587 20 19.7956 20 19V16C20.0046 15.9535 20.0046 15.9066 20 15.86C20.4201 15.4945 20.7565 15.0426 20.986 14.5352C21.2155 14.0278 21.3329 13.4769 21.33 12.92ZM4.66996 13.11C4.66452 12.5513 4.87188 12.0114 5.24995 11.6C5.45757 11.3795 5.71464 11.2116 5.99995 11.11V15.11C5.71706 15.0084 5.46071 14.8443 5.24995 14.63C4.87211 14.2145 4.66498 13.6716 4.66996 13.11ZM12 20H11.5C11.3673 20 11.2402 19.9473 11.1464 19.8536C11.0526 19.7598 11 19.6326 11 19.5C11 19.3674 11.0526 19.2402 11.1464 19.1464C11.2402 19.0527 11.3673 19 11.5 19H13.5C13.6326 19 13.7597 19.0527 13.8535 19.1464C13.9473 19.2402 14 19.3674 14 19.5C14 19.6326 13.9473 19.7598 13.8535 19.8536C13.7597 19.9473 13.6326 20 13.5 20H12ZM18 14.73V11.1C18.3876 11.22 18.7266 11.4609 18.9673 11.7875C19.2081 12.1141 19.338 12.5092 19.338 12.915C19.338 13.3208 19.2081 13.7159 18.9673 14.0425C18.7266 14.3691 18.3876 14.61 18 14.73Z" fill="#222221"/>
</svg>
