<svg width="24" height="24" viewBox="0 0 24 24" fill="none" xmlns="http://www.w3.org/2000/svg">
<path d="M14 20C14 20.2652 13.8946 20.5196 13.7071 20.7071C13.5196 20.8946 13.2652 21 13 21H7C6.20435 21 5.44129 20.6839 4.87868 20.1213C4.31607 19.5587 4 18.7956 4 18V6C4 5.20435 4.31607 4.44129 4.87868 3.87868C5.44129 3.31607 6.20435 3 7 3H13C13.2652 3 13.5196 3.10536 13.7071 3.29289C13.8946 3.48043 14 3.73478 14 4C14 4.26522 13.8946 4.51957 13.7071 4.70711C13.5196 4.89464 13.2652 5 13 5H7C6.73478 5 6.48043 5.10536 6.29289 5.29289C6.10536 5.48043 6 5.73478 6 6V18C6 18.2652 6.10536 18.5196 6.29289 18.7071C6.48043 18.8946 6.73478 19 7 19H13C13.2652 19 13.5196 19.1054 13.7071 19.2929C13.8946 19.4804 14 19.7348 14 20ZM20.6 11.4L16.6 7.4C16.5231 7.31342 16.4292 7.24347 16.3243 7.19447C16.2193 7.14546 16.1054 7.11842 15.9897 7.11501C15.8739 7.1116 15.7586 7.1319 15.651 7.17465C15.5433 7.21739 15.4455 7.2817 15.3636 7.3636C15.2817 7.44551 15.2174 7.5433 15.1746 7.65095C15.1319 7.75861 15.1116 7.87387 15.115 7.98966C15.1184 8.10544 15.1455 8.21931 15.1945 8.32426C15.2435 8.42922 15.3134 8.52305 15.4 8.6L17.8 11H10C9.73478 11 9.48043 11.1054 9.29289 11.2929C9.10536 11.4804 9 11.7348 9 12C9 12.2652 9.10536 12.5196 9.29289 12.7071C9.48043 12.8946 9.73478 13 10 13H17.8L15.4 15.4C15.256 15.562 15.1793 15.773 15.1857 15.9897C15.1921 16.2063 15.281 16.4124 15.4343 16.5657C15.5876 16.719 15.7937 16.8079 16.0103 16.8143C16.227 16.8207 16.438 16.744 16.6 16.6L20.6 12.6C20.7588 12.4407 20.8479 12.2249 20.8479 12C20.8479 11.7751 20.7588 11.5593 20.6 11.4Z" fill="#222221"/>
</svg>
