<svg width="24" height="24" viewBox="0 0 24 24" fill="none" xmlns="http://www.w3.org/2000/svg">
<path d="M17.71 11.29C17.8037 11.383 17.8781 11.4936 17.9289 11.6154C17.9797 11.7373 18.0058 11.868 18.0058 12C18.0058 12.132 17.9797 12.2627 17.9289 12.3846C17.8781 12.5064 17.8037 12.617 17.71 12.71L9.71 20.71C9.61704 20.8037 9.50644 20.8781 9.38458 20.9289C9.26272 20.9797 9.13201 21.0058 9 21.0058C8.86799 21.0058 8.73728 20.9797 8.61542 20.9289C8.49356 20.8781 8.38296 20.8037 8.29 20.71C8.19627 20.617 8.12188 20.5064 8.07111 20.3846C8.02034 20.2627 7.9942 20.132 7.9942 20C7.9942 19.868 8.02034 19.7373 8.07111 19.6154C8.12188 19.4936 8.19627 19.383 8.29 19.29L15.59 12L8.29 4.71C8.1017 4.5217 7.99591 4.2663 7.99591 4C7.99591 3.7337 8.1017 3.47831 8.29 3.29C8.4783 3.1017 8.7337 2.99591 9 2.99591C9.2663 2.99591 9.5217 3.1017 9.71 3.29L17.71 11.29Z" fill="#201600"/>
</svg>
