<svg width="47" height="48" viewBox="0 0 47 48" fill="none" xmlns="http://www.w3.org/2000/svg">
<path d="M42.42 40.58L33.62 31.8C35.8167 29.0064 37.0075 25.5538 37 22C37 18.8355 36.0616 15.7421 34.3035 13.1109C32.5454 10.4797 30.0466 8.42893 27.1229 7.21793C24.1993 6.00692 20.9823 5.69007 17.8786 6.30744C14.7749 6.9248 11.9239 8.44865 9.6863 10.6863C7.44866 12.9239 5.92481 15.7749 5.30744 18.8786C4.69008 21.9823 5.00693 25.1993 6.21793 28.1229C7.42894 31.0466 9.4797 33.5454 12.1109 35.3035C14.7421 37.0616 17.8355 38 21 38C24.5538 38.0075 28.0064 36.8167 30.8 34.62L39.58 43.42C39.9566 43.7966 40.4674 44.0082 41 44.0082C41.5326 44.0082 42.0434 43.7966 42.42 43.42C42.7966 43.0434 43.0082 42.5326 43.0082 42C43.0082 41.4674 42.7966 40.9566 42.42 40.58ZM12.52 30.58C10.5337 28.6376 9.28288 26.0663 8.98093 23.3046C8.67899 20.5429 9.34463 17.762 10.8643 15.4363C12.3839 13.1106 14.6635 11.3843 17.314 10.5518C19.9645 9.71928 22.8217 9.83222 25.3982 10.8713C27.9747 11.9104 30.1108 13.8113 31.4422 16.2497C32.7735 18.6881 33.2176 21.5129 32.6986 24.2421C32.1796 26.9714 30.7297 29.436 28.5963 31.2155C26.4629 32.995 23.7781 33.9791 21 34C17.8185 33.9972 14.7683 32.7311 12.52 30.48V30.58Z" fill="#222221"/>
</svg>
