<svg width="48" height="48" viewBox="0 0 48 48" fill="none" xmlns="http://www.w3.org/2000/svg">
<path d="M24 9.6C22.1013 9.6 20.2452 10.163 18.6665 11.2179C17.0878 12.2727 15.8574 13.7721 15.1308 15.5262C14.4042 17.2804 14.2141 19.2106 14.5845 21.0729C14.9549 22.9351 15.8692 24.6456 17.2118 25.9882C18.5544 27.3308 20.2649 28.2451 22.1271 28.6155C23.9894 28.986 25.9196 28.7958 27.6738 28.0692C29.4279 27.3426 30.9273 26.1122 31.9821 24.5335C33.037 22.9548 33.6 21.0987 33.6 19.2C33.6 16.6539 32.5886 14.2121 30.7882 12.4118C28.9879 10.6114 26.5461 9.6 24 9.6ZM24 24C23.0507 24 22.1226 23.7185 21.3333 23.191C20.5439 22.6636 19.9287 21.914 19.5654 21.0369C19.2021 20.1598 19.107 19.1947 19.2922 18.2636C19.4774 17.3325 19.9346 16.4772 20.6059 15.8059C21.2772 15.1346 22.1325 14.6774 23.0636 14.4922C23.9947 14.307 24.9598 14.4021 25.8369 14.7654C26.714 15.1287 27.4636 15.7439 27.9911 16.5333C28.5185 17.3226 28.8 18.2506 28.8 19.2C28.8 20.473 28.2943 21.6939 27.3941 22.5941C26.4939 23.4943 25.273 24 24 24ZM24 0C19.2533 0 14.6131 1.40758 10.6663 4.04473C6.71954 6.68188 3.6434 10.4302 1.8269 14.8156C0.0103988 19.201 -0.464881 24.0266 0.461164 28.6822C1.38721 33.3377 3.67299 37.6141 7.02945 40.9706C10.3859 44.327 14.6623 46.6128 19.3178 47.5388C23.9734 48.4649 28.799 47.9896 33.1844 46.1731C37.5698 44.3566 41.3181 41.2805 43.9553 37.3337C46.5924 33.3869 48 28.7467 48 24C48 20.8483 47.3792 17.7274 46.1731 14.8156C44.967 11.9038 43.1992 9.25804 40.9706 7.02944C38.742 4.80083 36.0962 3.033 33.1844 1.82689C30.2726 0.620778 27.1517 0 24 0V0ZM14.4 40.608V38.4C14.4 37.7635 14.6529 37.153 15.103 36.7029C15.553 36.2528 16.1635 36 16.8 36H31.2C31.8365 36 32.447 36.2528 32.8971 36.7029C33.3471 37.153 33.6 37.7635 33.6 38.4V40.608C30.6853 42.305 27.3728 43.199 24 43.199C20.6272 43.199 17.3148 42.305 14.4 40.608V40.608ZM38.232 36.84C37.8769 35.2399 36.9864 33.8088 35.7079 32.7834C34.4293 31.7579 32.839 31.1993 31.2 31.2H16.8C15.161 31.1993 13.5708 31.7579 12.2922 32.7834C11.0136 33.8088 10.1231 35.2399 9.76801 36.84C7.27343 34.0852 5.63197 30.6656 5.04281 26.9961C4.45364 23.3267 4.9421 19.5651 6.44891 16.1679C7.95573 12.7706 10.4161 9.88364 13.5316 7.85732C16.647 5.831 20.2836 4.7524 24 4.7524C27.7164 4.7524 31.353 5.831 34.4685 7.85732C37.5839 9.88364 40.0443 12.7706 41.5511 16.1679C43.0579 19.5651 43.5464 23.3267 42.9572 26.9961C42.368 30.6656 40.7266 34.0852 38.232 36.84V36.84Z" fill="#222221"/>
</svg>
