<svg width="24" height="24" viewBox="0 0 24 24" fill="none" xmlns="http://www.w3.org/2000/svg">
<path d="M12 2C10.0222 2 8.08879 2.58649 6.4443 3.6853C4.79981 4.78412 3.51809 6.3459 2.76121 8.17317C2.00433 10.0004 1.8063 12.0111 2.19215 13.9509C2.578 15.8907 3.53041 17.6725 4.92894 19.0711C6.32746 20.4696 8.10929 21.422 10.0491 21.8079C11.9889 22.1937 13.9996 21.9957 15.8268 21.2388C17.6541 20.4819 19.2159 19.2002 20.3147 17.5557C21.4135 15.9112 22 13.9778 22 12C22 10.6868 21.7413 9.38642 21.2388 8.17317C20.7363 6.95991 19.9997 5.85752 19.0711 4.92893C18.1425 4.00035 17.0401 3.26375 15.8268 2.7612C14.6136 2.25866 13.3132 2 12 2V2ZM12 20C10.4178 20 8.87104 19.5308 7.55544 18.6518C6.23985 17.7727 5.21447 16.5233 4.60897 15.0615C4.00347 13.5997 3.84504 11.9911 4.15372 10.4393C4.4624 8.88743 5.22433 7.46197 6.34315 6.34315C7.46197 5.22433 8.88743 4.4624 10.4393 4.15372C11.9911 3.84504 13.5997 4.00346 15.0615 4.60896C16.5233 5.21447 17.7727 6.23984 18.6518 7.55544C19.5308 8.87103 20 10.4177 20 12C20 14.1217 19.1572 16.1566 17.6569 17.6569C16.1566 19.1571 14.1217 20 12 20V20ZM7.5 10C7.5 9.70333 7.58798 9.41332 7.7528 9.16665C7.91762 8.91997 8.15189 8.72771 8.42598 8.61418C8.70007 8.50065 9.00167 8.47094 9.29264 8.52882C9.58361 8.5867 9.85089 8.72956 10.0607 8.93934C10.2704 9.14912 10.4133 9.41639 10.4712 9.70736C10.5291 9.99834 10.4994 10.2999 10.3858 10.574C10.2723 10.8481 10.08 11.0824 9.83336 11.2472C9.58669 11.412 9.29668 11.5 9 11.5C8.60218 11.5 8.22065 11.342 7.93934 11.0607C7.65804 10.7794 7.5 10.3978 7.5 10ZM16.5 10C16.5 10.2967 16.412 10.5867 16.2472 10.8334C16.0824 11.08 15.8481 11.2723 15.574 11.3858C15.2999 11.4994 14.9983 11.5291 14.7074 11.4712C14.4164 11.4133 14.1491 11.2704 13.9393 11.0607C13.7296 10.8509 13.5867 10.5836 13.5288 10.2926C13.4709 10.0017 13.5007 9.70006 13.6142 9.42597C13.7277 9.15189 13.92 8.91762 14.1666 8.7528C14.4133 8.58797 14.7033 8.5 15 8.5C15.3978 8.5 15.7794 8.65804 16.0607 8.93934C16.342 9.22064 16.5 9.60218 16.5 10ZM15.73 13.39C15.8302 13.454 15.9168 13.5371 15.9847 13.6348C16.0526 13.7324 16.1005 13.8425 16.1256 13.9587C16.1507 14.0749 16.1526 14.195 16.131 14.3119C16.1094 14.4289 16.0649 14.5404 16 14.64C15.5629 15.2918 14.9722 15.8259 14.2798 16.1952C13.5874 16.5646 12.8147 16.7578 12.03 16.7578C11.2453 16.7578 10.4726 16.5646 9.78024 16.1952C9.08786 15.8259 8.49706 15.2918 8.06 14.64C7.99368 14.5422 7.94728 14.4322 7.92345 14.3165C7.89962 14.2007 7.89882 14.0814 7.92111 13.9653C7.9434 13.8492 7.98833 13.7387 8.05334 13.64C8.11835 13.5413 8.20217 13.4563 8.3 13.39C8.398 13.3228 8.50845 13.276 8.62485 13.2522C8.74124 13.2284 8.86123 13.2281 8.97773 13.2514C9.09422 13.2747 9.20488 13.3211 9.30317 13.3878C9.40145 13.4546 9.48538 13.5403 9.55 13.64C9.82366 14.0526 10.1952 14.391 10.6314 14.6251C11.0676 14.8592 11.5549 14.9817 12.05 14.9817C12.5451 14.9817 13.0324 14.8592 13.4686 14.6251C13.9049 14.391 14.2764 14.0526 14.55 13.64C14.6794 13.4578 14.8726 13.3309 15.0912 13.2846C15.3098 13.2383 15.5378 13.2759 15.73 13.39Z" fill="#222221"/>
</svg>
